# xmcd
#
# Track frame offsets:
#	150
#	17995
#	32856
#	47362
#	62266
#	79376
#	98896
#	114042
#	129694
#	143155
#	160532
#	176698
#	191022
#	209102
#	226473
#	239292
#
# Disc length: 3371 seconds
#
# Revision: 1
# Processed by: cddbd v1.5.2PL0 Copyright (c) Steve Scherf et al.
# Submitted via: audiograbber 1.83.01
#
DISCID=d60d2910
DTITLE=Various Artist - CDX Volume 493 - 2/15/2010
DYEAR=2010
DGENRE=Country
TTITLE0=Randy Montana - Ain't Much Left Of Lovin' You
TTITLE1=Mallary Hope - Blossom In The Dust
TTITLE2=George Strait - I Gotta Get To You
TTITLE3=Jerrod Niemann - Lover, Lover
TTITLE4=Tim McGraw - Still
TTITLE5=Lee Ann Womack - There Is A God
TTITLE6=Fast Ryde - Top Down
TTITLE7=Bekka Bramlett - I Got News For You
TTITLE8=Jeremy Lesley - Cowgirl Tough
TTITLE9=KC Ford - Culver Creek
TTITLE10=Clay Underwood - God's Up To Something
TTITLE11=Karli Whetstone - I'm Having A Good Day
TTITLE12=Rocket Club - One More Day
TTITLE13=Todd Jones - Sittin' In Atlanta Station
TTITLE14=John Brannen - Still In The Game
TTITLE15=Christopher Michael Johnson - You're Invited
EXTD=
EXTT0=
EXTT1=
EXTT2=
EXTT3=
EXTT4=
EXTT5=
EXTT6=
EXTT7=
EXTT8=
EXTT9=
EXTT10=
EXTT11=
EXTT12=
EXTT13=
EXTT14=
EXTT15=
PLAYORDER=
